<?xml version="1.0" encoding="utf-8"?>
<!-- Generator: Adobe Illustrator 27.5.0, SVG Export Plug-In . SVG Version: 6.00 Build 0)  -->
<svg version="1.1" id="Ebene_1" xmlns="http://www.w3.org/2000/svg" xmlns:xlink="http://www.w3.org/1999/xlink" x="0px" y="0px"
	 viewBox="0 0 283.5 283.5" style="enable-background:new 0 0 283.5 283.5;" xml:space="preserve">
<style type="text/css">
	.st0{fill:none;stroke:#000000;stroke-width:2.5265;stroke-linecap:round;stroke-linejoin:round;stroke-miterlimit:10;}
</style>
<g>
	<path d="M135.5,118.7c1.6,0,3,0.5,4.2,1.6c1.1,1,1.7,2.3,1.7,3.9c0,0.4,0,0.8,0,1.1c0,0.3-0.1,0.7-0.1,1h-2.4
		c0.1-0.5,0.1-0.9,0.1-1c0-0.1,0-0.2,0-0.4c0-0.5-0.2-0.9-0.5-1.2c-0.4-0.3-0.8-0.4-1.4-0.4c-0.8,0-1.6,0.3-2.2,1
		c-0.6,0.7-1.1,1.7-1.3,3l-0.9,4h3.6l-0.4,2h-3.7l-5.8,27c-0.6,2.8-1.7,5-3.2,6.4s-3.4,2.1-5.8,2.1c-1.6,0-3-0.5-4.2-1.5
		c-1.2-1-1.7-2.3-1.7-3.8c0-1.7,0.6-3.2,1.7-4.2c1.1-1.1,3.4-2.2,6.9-3.2l6-28.6c0.6-2.8,1.7-4.9,3.2-6.3
		C131.1,119.4,133.1,118.7,135.5,118.7z M120,157.4c-1.9,0.6-3.3,1.4-4.2,2.2c-0.9,0.8-1.3,1.8-1.3,3c0,0.4,0.2,0.8,0.6,1.1
		c0.4,0.3,0.9,0.5,1.4,0.5c0.6,0,1.2-0.3,1.7-1s0.9-1.6,1.2-2.9L120,157.4z"/>
</g>
<g>
	<path d="M137.6,148.8v22.9h-4.2v-34.4h6.1l9.2,23.9c0.3,1,0.6,2,0.9,3.1c0.3,1.1,0.5,1.9,0.6,2.4c0.1-0.4,0.3-1,0.5-1.8
		c0.2-0.8,0.5-1.5,0.7-2.2c0.2-0.7,0.4-1.2,0.5-1.4l9-23.9h6v34.4h-4.2v-22.9c0-1.3,0-2.5,0.1-3.7c0-1.2,0.1-2.4,0.2-3.6
		c-0.4,1.4-0.8,2.7-1.1,3.9c-0.4,1.1-0.7,2.1-1,2.9l-8.9,23.4h-3.3l-9-23.4l-2.2-6.8c0,1.2,0.1,2.4,0.1,3.7
		C137.6,146.3,137.6,147.5,137.6,148.8z"/>
</g>
<g>
	<circle class="st0" cx="129.7" cy="104.6" r="5"/>
	<path class="st0" d="M161.5,121.4c0,2.8-2.3,5-5,5s-5-2.3-5-5c0-2.8,2.3-5,5-5S161.5,118.6,161.5,121.4z"/>
	<circle class="st0" cx="178.3" cy="94.5" r="5"/>
	<line class="st0" x1="160.5" y1="117.8" x2="174.2" y2="99.5"/>
	<line class="st0" x1="134.3" y1="107.4" x2="151.4" y2="118.3"/>
	<line class="st0" x1="113" y1="123.4" x2="126.4" y2="109.1"/>
	<circle class="st0" cx="108.7" cy="127.8" r="5"/>
</g>
</svg>
